<svg xmlns="http://www.w3.org/2000/svg" viewBox="0 0 32 32">
  <rect width="32" height="32" rx="6" fill="#fff"/>
  <g transform="translate(-50 -56) scale(0.14)">
    <path d="M290.06 0.155C294.1-0.382 301.35 0.634 305.66 0.783C310.66 0.956 316.98 0.589 321.79 1.283C324.76 1.7 327.65 2.551 330.37 3.809C333.98 5.515 336.69 7.447 336.99 11.672C337.21 14.671 337.3 17.664 337.54 20.663C337.8 23.751 338.52 26.894 338.62 30.003C338.57 33.119 337.5 36.056 337.79 39.548C338.18 44.111 340.83 49.377 340.53 53.778C340.39 55.77 338.83 59.154 338.59 61.542C337.51 72.133 336.34 82.732 335.1 93.305C334.76 96.261 333.04 99.94 332.98 103.177C332.92 107.075 334.14 111.038 334.38 114.862C334.62 118.752 333.85 123.01 334.44 126.93C334.87 129.781 336.7 133.16 336.86 135.922C337.04 138.925 336.94 142.391 336.94 145.421C336.94 157.781 336.43 166.282 340.64 178.138C338.47 183.082 339.86 191.099 339.81 196.729C339.79 199.229 340.52 201.162 340.07 204.247C339.12 210.647 335.03 220.482 334.67 226.524C334.41 231.062 339.6 242.134 339.31 247.154C339.18 249.442 337.53 253.802 336.99 256.392C336.34 259.494 335.99 263.569 334.57 266.317C333.68 268.042 331.94 269.357 330.53 270.542C324.98 275.729 317.94 276.349 311.53 279.154C304.38 282.284 297.94 283.944 290.58 286.144C285.84 287.564 282.67 290.607 277.02 292.132C275.75 293.564 273.72 296.084 272.02 296.894C269.07 298.292 265.34 298.629 262.17 299.439C253.49 301.659 242.66 304.077 234.62 307.807C228.51 310.644 224.42 320.102 216.48 321.359C207.99 322.707 199.59 322.904 191.04 322.247C187.51 321.977 184 320.987 180.47 321.074C178.4 320.844 173.8 323.297 172.09 323.217C163.91 322.827 159.76 325.569 155.45 332.474C154.28 334.337 152.26 337.734 150.18 339.019C147.55 340.637 144.32 341.092 141.48 342.152C134.12 344.894 126.12 347.074 118.87 349.849C113.74 351.814 110.69 361.629 104.16 362.297C101.29 362.592 97.38 361.827 94.46 361.864C89.21 361.877 84.03 361.607 78.79 361.514C73.03 361.312 67.27 361.864 61.52 361.737C59.73 361.699 57.08 360.984 55.35 360.502C52.96 359.649 48.34 357.802 46.11 357.594C40.82 357.102 37.14 357.804 31.89 356.157C24.36 353.794 26.61 346.819 23.81 341.544C21.83 337.807 12.08 335.642 8.98 332.407C6.85 330.189 3.92 325.209 2.53 322.454C3.66 316.672 5.99 312.617 6.92 305.982C8.64 293.597 1.28 292.299 0.11 280.274C-0.71 271.749 3.19 267.047 3.73 258.624C4.06 253.424 1.5 248.367 1.79 244.084C2.07 239.889 4.46 233.364 5.04 228.862C5.45 225.692 5.16 222.294 5.71 219.437C6.09 217.474 8.13 214.594 8.62 212.019C9.36 208.104 8.71 204.032 9.53 200.262C10.14 197.472 13.12 193.989 13.7 191.087C14.24 188.307 14.49 185.319 14.95 182.494C15.8 177.315 17.31 171.707 17.71 166.503C18.24 159.583 18.07 152.348 18.19 145.359C18.09 140.288 19.47 135.068 19.54 130.061C19.73 118.327 17.2 106.538 17.25 94.798C17.27 91.24 18.12 87.523 18.08 83.936C18.02 79.02 17.18 74.107 17.48 69.197C17.74 65.9 19.9 65.688 20.73 61.092C21.41 57.384 21.91 53.644 22.22 49.887C22.42 47.384 22.62 42.576 23.1 40.304C23.88 36.578 26.14 33.917 27.01 29.648C28.4 22.882 25.55 15.301 30.52 10.04C32.25 8.212 34.34 5.749 36.89 5.259C40.18 4.627 43.84 5.141 47.24 4.737C50.86 4.309 54.55 3.548 58.12 3.18C61.86 2.793 66.25 3.081 69.99 2.8C79.38 2.094 88.52 1.901 97.94 2.072C104.55 2.191 110.89 2.944 117.53 3.062C131.76 3.315 145.95 2.914 160.18 3.028C162.95 2.866 167.52 4.369 170.13 4.007C181.72 2.403 193.13 2.412 204.8 2.481C208.07 2.5 211.65 3.615 214.79 3.548C221.47 3.406 228.05 3.854 234.71 3.977C241.04 4.026 247.36 3.703 253.69 3.819C257.18 3.883 260.66 4.585 264.15 4.632C273.15 4.024 280.77 0.961 290.06 0.155Z" fill="#e8e8e4"/>
    <path d="M290.06 0.155C294.1-0.382 301.35 0.634 305.66 0.783C310.66 0.956 316.98 0.589 321.79 1.283C324.76 1.7 327.65 2.551 330.37 3.809C333.98 5.515 336.69 7.447 336.99 11.672C337.21 14.671 337.3 17.664 337.54 20.663C337.8 23.751 338.52 26.894 338.62 30.003C338.57 33.119 337.5 36.056 337.79 39.548C338.18 44.111 340.83 49.377 340.53 53.778C340.39 55.77 338.83 59.154 338.59 61.542C337.51 72.133 336.34 82.732 335.1 93.305C334.76 96.261 333.04 99.94 332.98 103.177C332.92 107.075 334.14 111.038 334.38 114.862C334.62 118.752 333.85 123.01 334.44 126.93C334.87 129.781 336.7 133.16 336.86 135.922C337.04 138.925 336.94 142.391 336.94 145.421C336.94 157.781 336.43 166.282 340.64 178.138" stroke="#d5d5d1" stroke-width="3" fill="none"/>
  </g>
</svg>