<svg preserveAspectRatio="none" width="100%" height="100%" overflow="visible" style="display: block;" viewBox="0 0 340.635 362.365" fill="none" xmlns="http://www.w3.org/2000/svg">
<g id="slab base" filter="url(#filter0_n_0_8)">
<path d="M290.06 0.155367C294.103 -0.381633 301.348 0.633866 305.658 0.782866C310.655 0.955866 316.978 0.588613 321.785 1.28311C324.755 1.69986 327.645 2.55111 330.368 3.80911C333.98 5.51461 336.688 7.44712 336.99 11.6716C337.208 14.6711 337.298 17.6639 337.543 20.6626C337.795 23.7509 338.515 26.8936 338.62 30.0031C338.57 33.1189 337.498 36.0559 337.793 39.5476C338.175 44.1111 340.833 49.3766 340.528 53.7779C340.388 55.7704 338.833 59.1544 338.588 61.5421C337.508 72.1331 336.335 82.7316 335.105 93.3049C334.76 96.2606 333.035 99.9404 332.983 103.177C332.92 107.075 334.138 111.038 334.378 114.862C334.623 118.752 333.85 123.01 334.438 126.93C334.865 129.781 336.7 133.16 336.86 135.922C337.035 138.925 336.943 142.391 336.94 145.421C336.935 157.781 336.428 166.282 340.635 178.138C338.468 183.082 339.863 191.099 339.813 196.729C339.793 199.229 340.523 201.162 340.065 204.247C339.115 210.647 335.028 220.482 334.673 226.524C334.408 231.062 339.6 242.134 339.308 247.154C339.175 249.442 337.528 253.802 336.988 256.392C336.343 259.494 335.988 263.569 334.568 266.317C333.675 268.042 331.94 269.357 330.525 270.542C324.975 275.729 317.938 276.349 311.53 279.154C304.38 282.284 297.94 283.944 290.583 286.144C285.84 287.564 282.67 290.607 277.023 292.132C275.75 293.564 273.718 296.084 272.018 296.894C269.07 298.292 265.343 298.629 262.173 299.439C253.485 301.659 242.655 304.077 234.623 307.807C228.51 310.644 224.415 320.102 216.481 321.359C207.991 322.707 199.594 322.904 191.038 322.247C187.511 321.977 183.999 320.987 180.469 321.074C178.398 320.844 173.796 323.297 172.089 323.217C163.905 322.827 159.757 325.569 155.446 332.474C154.282 334.337 152.255 337.734 150.179 339.019C147.551 340.637 144.323 341.092 141.477 342.152C134.117 344.894 126.115 347.074 118.869 349.849C113.737 351.814 110.692 361.629 104.156 362.297C101.291 362.592 97.3802 361.827 94.4589 361.864C89.2144 361.877 84.0294 361.607 78.7942 361.514C73.0294 361.312 67.2652 361.864 61.5212 361.737C59.7299 361.699 57.0757 360.984 55.3504 360.502C52.9594 359.649 48.3357 357.802 46.1132 357.594C40.8179 357.102 37.1442 357.804 31.8907 356.157C24.3554 353.794 26.6087 346.819 23.8107 341.544C21.8289 337.807 12.0767 335.642 8.97566 332.407C6.85116 330.189 3.92091 325.209 2.53416 322.454C3.66241 316.672 5.99141 312.617 6.91666 305.982C8.64391 293.597 1.28166 292.299 0.114659 280.274C-0.712841 271.749 3.19191 267.047 3.72666 258.624C4.05666 253.424 1.49666 248.367 1.78541 244.084C2.06816 239.889 4.45941 233.364 5.04066 228.862C5.45016 225.692 5.15741 222.294 5.70841 219.437C6.08716 217.474 8.13091 214.594 8.61816 212.019C9.35866 208.104 8.70616 204.032 9.52841 200.262C10.1372 197.472 13.1247 193.989 13.6959 191.087C14.2427 188.307 14.4902 185.319 14.9514 182.494C15.7974 177.315 17.3104 171.707 17.7114 166.503C18.2447 159.583 18.0679 152.348 18.1929 145.359C18.0902 140.288 19.4679 135.068 19.5449 130.061C19.7254 118.327 17.1979 106.538 17.2499 94.7981C17.2657 91.2399 18.1214 87.5226 18.0774 83.9359C18.0172 79.0204 17.1802 74.1069 17.4849 69.1974C17.7424 65.8999 19.9029 65.6881 20.7274 61.0924C21.4064 57.3836 21.9054 53.6441 22.2229 49.8871C22.4224 47.3836 22.6224 42.5759 23.0974 40.3044C23.8767 36.5781 26.1409 33.9174 27.0139 29.6476C28.3972 22.8816 25.5537 15.3009 30.5224 10.0404C32.2494 8.21187 34.3412 5.74936 36.8917 5.25936C40.1834 4.62686 43.8374 5.14087 47.2414 4.73737C50.8552 4.30887 54.5467 3.54786 58.1164 3.17961C61.8634 2.79311 66.2469 3.08112 69.9862 2.80012C79.3792 2.09387 88.5182 1.90137 97.9382 2.07162C104.549 2.19137 110.887 2.94411 117.533 3.06211C131.76 3.31536 145.949 2.91437 160.18 3.02762C162.951 2.86612 167.519 4.36886 170.13 4.00736C181.718 2.40286 193.125 2.41237 204.803 2.48087C208.067 2.49987 211.654 3.61536 214.793 3.54836C221.472 3.40561 228.045 3.85412 234.713 3.97662C241.035 4.02587 247.363 3.70287 253.69 3.81912C257.178 3.88312 260.658 4.58512 264.145 4.63162C273.148 4.02387 280.768 0.960617 290.06 0.155367Z" fill="url(#paint0_linear_0_8)"/>
</g>
<defs>
<filter id="filter0_n_0_8" x="0" y="0" width="340.635" height="362.365" filterUnits="userSpaceOnUse" color-interpolation-filters="sRGB">
<feFlood flood-opacity="0" result="BackgroundImageFix"/>
<feBlend mode="normal" in="SourceGraphic" in2="BackgroundImageFix" result="shape"/>
<feTurbulence type="fractalNoise" baseFrequency="0.25 0.25" stitchTiles="stitch" numOctaves="3" result="noise" seed="6846" />
<feColorMatrix in="noise" type="luminanceToAlpha" result="alphaNoise" />
<feComponentTransfer in="alphaNoise" result="coloredNoise1">
<feFuncA type="discrete" tableValues="0 0 0 0 0 0 0 0 0 0 0 0 0 0 0 1 1 1 1 1 1 1 1 1 1 1 1 1 1 1 1 1 1 1 0 0 0 0 0 0 0 0 0 0 0 0 0 0 0 0 0 0 0 0 0 0 0 0 0 0 0 0 0 0 0 0 0 0 0 0 0 0 0 0 0 0 0 0 0 0 0 0 0 0 0 0 0 0 0 0 0 0 0 0 0 0 0 0 0 0 "/>
</feComponentTransfer>
<feComposite operator="in" in2="shape" in="coloredNoise1" result="noise1Clipped" />
<feComponentTransfer in="alphaNoise" result="coloredNoise2">
<feFuncA type="discrete" tableValues="0 0 0 0 0 0 0 0 0 0 0 0 0 0 0 0 0 0 0 0 0 0 0 0 0 0 0 0 0 0 0 0 0 0 0 0 0 0 0 0 0 0 0 0 0 0 0 0 0 0 0 0 0 0 0 0 0 0 0 0 0 0 0 0 0 0 1 1 1 1 1 1 1 1 1 1 1 1 1 1 1 1 1 1 1 0 0 0 0 0 0 0 0 0 0 0 0 0 0 0 "/>
</feComponentTransfer>
<feComposite operator="in" in2="shape" in="coloredNoise2" result="noise2Clipped" />
<feFlood flood-color="rgba(171, 165, 158, 0.16)" result="color1Flood" />
<feComposite operator="in" in2="noise1Clipped" in="color1Flood" result="color1" />
<feFlood flood-color="#F2EFEC" result="color2Flood" />
<feComposite operator="in" in2="noise2Clipped" in="color2Flood" result="color2" />
<feMerge result="effect1_noise_0_8">
<feMergeNode in="shape" />
<feMergeNode in="color1" />
<feMergeNode in="color2" />
</feMerge>
</filter>
<linearGradient id="paint0_linear_0_8" x1="0.000122294" y1="70.5" x2="336.5" y2="285" gradientUnits="userSpaceOnUse">
<stop stop-color="#FCFAF8"/>
<stop offset="1" stop-color="#F4F3F1"/>
</linearGradient>
</defs>
</svg>
