<svg preserveAspectRatio="none" width="100%" height="100%" overflow="visible" style="display: block;" viewBox="0 0 416 443" fill="none" xmlns="http://www.w3.org/2000/svg">
<g id="slab volume" filter="url(#filter0_n_0_11)">
<path d="M354.235 0.18994C359.172 -0.466556 368.02 0.774917 373.284 0.957073C379.387 1.16857 387.108 0.719595 392.979 1.56864C396.607 2.07813 400.136 3.1188 403.461 4.65674C407.873 6.74176 411.179 9.10429 411.549 14.2688C411.814 17.9358 411.924 21.5945 412.223 25.2606C412.532 29.036 413.411 32.8781 413.539 36.6796C413.478 40.4887 412.168 44.0792 412.529 48.348C412.996 53.927 416.241 60.3642 415.869 65.7448C415.698 68.1807 413.799 72.3177 413.499 75.2368C412.181 88.1846 410.749 101.142 409.246 114.068C408.825 117.681 406.719 122.18 406.654 126.137C406.578 130.901 408.065 135.747 408.358 140.422C408.657 145.177 407.714 150.383 408.431 155.175C408.953 158.661 411.194 162.792 411.39 166.168C411.604 169.839 411.491 174.076 411.487 177.78C411.481 192.891 410.862 203.283 416 217.779C413.353 223.823 415.057 233.624 414.996 240.507C414.971 243.563 415.863 245.925 415.304 249.697C414.144 257.521 409.152 269.545 408.718 276.932C408.395 282.479 414.736 296.015 414.379 302.152C414.217 304.949 412.205 310.279 411.546 313.446C410.758 317.238 410.324 322.22 408.59 325.579C407.5 327.688 405.381 329.296 403.653 330.744C396.875 337.086 388.281 337.844 380.456 341.273C371.724 345.1 363.859 347.129 354.874 349.819C349.082 351.555 345.21 355.274 338.313 357.139C336.759 358.89 334.277 361.971 332.201 362.961C328.601 364.669 324.049 365.082 320.178 366.072C309.568 368.786 296.342 371.742 286.533 376.302C279.068 379.771 274.067 391.333 264.376 392.87C254.009 394.517 243.754 394.759 233.304 393.955C228.997 393.625 224.708 392.415 220.397 392.522C217.868 392.24 212.248 395.239 210.164 395.141C200.168 394.664 195.102 398.017 189.838 406.458C188.417 408.735 185.941 412.889 183.406 414.46C180.196 416.437 176.254 416.993 172.778 418.289C163.79 421.642 154.017 424.307 145.168 427.7C138.901 430.102 135.182 442.101 127.2 442.917C123.702 443.278 118.925 442.343 115.358 442.388C108.953 442.404 102.621 442.074 96.2271 441.96C89.187 441.713 82.1474 442.388 75.1325 442.233C72.945 442.187 69.7035 441.313 67.5965 440.723C64.6765 439.681 59.0298 437.422 56.3156 437.168C49.8488 436.566 45.3622 437.425 38.9464 435.411C29.744 432.523 32.4957 423.995 29.0787 417.547C26.6585 412.977 14.7486 410.331 10.9615 406.376C8.36696 403.665 4.7884 397.577 3.09483 394.209C4.47271 387.139 7.31699 382.182 8.44695 374.071C10.5563 358.93 1.56522 357.343 0.140027 342.643C-0.870555 332.221 3.89811 326.472 4.55117 316.175C4.95418 309.818 1.82779 303.635 2.18043 298.399C2.52573 293.271 5.44604 285.294 6.15589 279.789C6.65599 275.914 6.29847 271.761 6.97138 268.267C7.43393 265.868 9.92985 262.347 10.5249 259.199C11.4292 254.413 10.6324 249.434 11.6365 244.825C12.38 241.414 16.0285 237.157 16.7261 233.609C17.3938 230.21 17.6961 226.558 18.2594 223.104C19.2925 216.772 21.1403 209.916 21.63 203.554C22.2812 195.094 22.0654 186.25 22.218 177.705C22.0926 171.505 23.7751 165.124 23.8692 159.003C24.0896 144.658 21.0029 130.245 21.0664 115.893C21.0856 111.543 22.1307 106.999 22.077 102.614C22.0034 96.6044 20.9812 90.5975 21.3534 84.5955C21.6679 80.5642 24.3064 80.3054 25.3133 74.687C26.1425 70.1529 26.7519 65.5813 27.1397 60.9883C27.3833 57.9277 27.6276 52.0501 28.2076 49.2731C29.1593 44.7177 31.9245 41.4648 32.9907 36.245C34.6799 27.9734 31.2073 18.7057 37.2754 12.2746C39.3845 10.0392 41.939 7.02874 45.0538 6.4297C49.0739 5.65646 53.5363 6.28484 57.6934 5.79155C62.1067 5.2677 66.6149 4.33735 70.9745 3.88716C75.5505 3.41465 80.9038 3.76675 85.4704 3.42322C96.9416 2.55981 108.103 2.32447 119.607 2.53261C127.681 2.679 135.42 3.59925 143.536 3.74351C160.912 4.05312 178.24 3.56289 195.619 3.70134C199.003 3.5039 204.582 5.34105 207.771 4.8991C221.922 2.93756 235.853 2.94918 250.116 3.03292C254.102 3.05615 258.482 4.41987 262.315 4.33797C270.472 4.16345 278.5 4.71176 286.642 4.86152C294.364 4.92173 302.091 4.52685 309.819 4.66897C314.078 4.74721 318.328 5.60542 322.587 5.66227C333.581 4.91928 342.887 1.17438 354.235 0.18994Z" fill="var(--fill-0, #EAE4E0)"/>
<path d="M354.235 0.18994C359.172 -0.466556 368.02 0.774917 373.284 0.957073C379.387 1.16857 387.108 0.719595 392.979 1.56864C396.607 2.07813 400.136 3.1188 403.461 4.65674C407.873 6.74176 411.179 9.10429 411.549 14.2688C411.814 17.9358 411.924 21.5945 412.223 25.2606C412.532 29.036 413.411 32.8781 413.539 36.6796C413.478 40.4887 412.168 44.0792 412.529 48.348C412.996 53.927 416.241 60.3642 415.869 65.7448C415.698 68.1807 413.799 72.3177 413.499 75.2368C412.181 88.1846 410.749 101.142 409.246 114.068C408.825 117.681 406.719 122.18 406.654 126.137C406.578 130.901 408.065 135.747 408.358 140.422C408.657 145.177 407.714 150.383 408.431 155.175C408.953 158.661 411.194 162.792 411.39 166.168C411.604 169.839 411.491 174.076 411.487 177.78C411.481 192.891 410.862 203.283 416 217.779C413.353 223.823 415.057 233.624 414.996 240.507C414.971 243.563 415.863 245.925 415.304 249.697C414.144 257.521 409.152 269.545 408.718 276.932C408.395 282.479 414.736 296.015 414.379 302.152C414.217 304.949 412.205 310.279 411.546 313.446C410.758 317.238 410.324 322.22 408.59 325.579C407.5 327.688 405.381 329.296 403.653 330.744C396.875 337.086 388.281 337.844 380.456 341.273C371.724 345.1 363.859 347.129 354.874 349.819C349.082 351.555 345.21 355.274 338.313 357.139C336.759 358.89 334.277 361.971 332.201 362.961C328.601 364.669 324.049 365.082 320.178 366.072C309.568 368.786 296.342 371.742 286.533 376.302C279.068 379.771 274.067 391.333 264.376 392.87C254.009 394.517 243.754 394.759 233.304 393.955C228.997 393.625 224.708 392.415 220.397 392.522C217.868 392.24 212.248 395.239 210.164 395.141C200.168 394.664 195.102 398.017 189.838 406.458C188.417 408.735 185.941 412.889 183.406 414.46C180.196 416.437 176.254 416.993 172.778 418.289C163.79 421.642 154.017 424.307 145.168 427.7C138.901 430.102 135.182 442.101 127.2 442.917C123.702 443.278 118.925 442.343 115.358 442.388C108.953 442.404 102.621 442.074 96.2271 441.96C89.187 441.713 82.1474 442.388 75.1325 442.233C72.945 442.187 69.7035 441.313 67.5965 440.723C64.6765 439.681 59.0298 437.422 56.3156 437.168C49.8488 436.566 45.3622 437.425 38.9464 435.411C29.744 432.523 32.4957 423.995 29.0787 417.547C26.6585 412.977 14.7486 410.331 10.9615 406.376C8.36696 403.665 4.7884 397.577 3.09483 394.209C4.47271 387.139 7.31699 382.182 8.44695 374.071C10.5563 358.93 1.56522 357.343 0.140027 342.643C-0.870555 332.221 3.89811 326.472 4.55117 316.175C4.95418 309.818 1.82779 303.635 2.18043 298.399C2.52573 293.271 5.44604 285.294 6.15589 279.789C6.65599 275.914 6.29847 271.761 6.97138 268.267C7.43393 265.868 9.92985 262.347 10.5249 259.199C11.4292 254.413 10.6324 249.434 11.6365 244.825C12.38 241.414 16.0285 237.157 16.7261 233.609C17.3938 230.21 17.6961 226.558 18.2594 223.104C19.2925 216.772 21.1403 209.916 21.63 203.554C22.2812 195.094 22.0654 186.25 22.218 177.705C22.0926 171.505 23.7751 165.124 23.8692 159.003C24.0896 144.658 21.0029 130.245 21.0664 115.893C21.0856 111.543 22.1307 106.999 22.077 102.614C22.0034 96.6044 20.9812 90.5975 21.3534 84.5955C21.6679 80.5642 24.3064 80.3054 25.3133 74.687C26.1425 70.1529 26.7519 65.5813 27.1397 60.9883C27.3833 57.9277 27.6276 52.0501 28.2076 49.2731C29.1593 44.7177 31.9245 41.4648 32.9907 36.245C34.6799 27.9734 31.2073 18.7057 37.2754 12.2746C39.3845 10.0392 41.939 7.02874 45.0538 6.4297C49.0739 5.65646 53.5363 6.28484 57.6934 5.79155C62.1067 5.2677 66.6149 4.33735 70.9745 3.88716C75.5505 3.41465 80.9038 3.76675 85.4704 3.42322C96.9416 2.55981 108.103 2.32447 119.607 2.53261C127.681 2.679 135.42 3.59925 143.536 3.74351C160.912 4.05312 178.24 3.56289 195.619 3.70134C199.003 3.5039 204.582 5.34105 207.771 4.8991C221.922 2.93756 235.853 2.94918 250.116 3.03292C254.102 3.05615 258.482 4.41987 262.315 4.33797C270.472 4.16345 278.5 4.71176 286.642 4.86152C294.364 4.92173 302.091 4.52685 309.819 4.66897C314.078 4.74721 318.328 5.60542 322.587 5.66227C333.581 4.91928 342.887 1.17438 354.235 0.18994Z" fill="url(#paint0_linear_0_11)" fill-opacity="0.4"/>
<path d="M354.302 0.685547C356.712 0.365055 360.11 0.506422 363.602 0.757813C367.064 1.00715 370.624 1.36557 373.267 1.45703C376.327 1.56308 379.806 1.50322 383.216 1.52344C386.64 1.54375 390.009 1.64425 392.908 2.06348H392.91C396.265 2.53474 399.535 3.46704 402.634 4.83203L403.251 5.11035C405.442 6.14588 407.301 7.22559 408.658 8.65234C409.918 9.97588 410.763 11.6164 411.009 13.8496L411.05 14.3047C411.182 16.1324 411.276 17.9587 411.374 19.792C411.472 21.623 411.574 23.4603 411.725 25.3008V25.3018C411.88 27.2087 412.181 29.1328 412.454 31.0313C412.728 32.934 412.974 34.8175 413.038 36.6846C413.007 38.541 412.675 40.3411 412.382 42.2666C412.091 44.1816 411.845 46.1943 412.03 48.3896C412.269 51.2385 413.216 54.3023 414.031 57.2539C414.805 60.0534 415.462 62.7566 415.394 65.2207L415.37 65.71C415.29 66.8553 414.796 68.4319 414.255 70.1602C413.726 71.8485 413.158 73.6653 413.002 75.1855V75.1865C412.013 84.8951 410.96 94.609 409.862 104.312L408.75 114.01C408.545 115.765 407.93 117.741 407.336 119.837C406.749 121.905 406.188 124.077 406.154 126.129C406.115 128.561 406.475 131.003 406.874 133.396C407.275 135.802 407.715 138.149 407.859 140.453C408.007 142.797 407.848 145.251 407.738 147.763C407.629 150.258 407.57 152.801 407.937 155.249C408.206 157.049 408.918 159.005 409.561 160.875C410.214 162.776 410.797 164.588 410.891 166.196C411.103 169.848 410.99 174.056 410.987 177.78C410.981 192.805 410.362 203.265 415.464 217.761C414.162 220.865 413.942 224.845 414.028 228.839C414.072 230.883 414.197 232.953 414.307 234.93C414.416 236.912 414.51 238.8 414.495 240.502V240.503C414.483 242.068 414.706 243.474 414.853 244.886C415 246.309 415.08 247.796 414.81 249.624C414.236 253.492 412.712 258.41 411.259 263.337C409.816 268.23 408.44 273.141 408.219 276.902C408.133 278.372 408.488 280.324 409.032 282.473C409.58 284.633 410.335 287.051 411.084 289.469C411.835 291.893 412.578 294.319 413.113 296.521C413.65 298.731 413.965 300.667 413.88 302.123V302.124C413.803 303.455 413.278 305.43 412.669 307.521C412.144 309.321 411.56 311.197 411.197 312.716L411.056 313.344C410.857 314.302 410.68 315.334 410.502 316.386C410.323 317.44 410.143 318.517 409.933 319.578C409.537 321.575 409.045 323.481 408.299 325.042L408.146 325.35C407.113 327.346 405.099 328.88 403.332 330.361L403.321 330.37L403.312 330.379C399.995 333.482 396.226 335.229 392.28 336.63C388.37 338.018 384.183 339.094 380.255 340.815C371.559 344.626 363.736 346.644 354.73 349.34H354.729C351.775 350.226 349.311 351.618 346.771 352.99C344.221 354.367 341.572 355.74 338.183 356.656L338.039 356.695L337.939 356.807C337.148 357.698 336.159 358.885 335.094 359.988C334.023 361.098 332.936 362.055 331.986 362.509C330.241 363.337 328.25 363.858 326.188 364.297C324.148 364.73 322 365.09 320.054 365.588C309.806 368.209 297.013 371.077 287.256 375.423L286.321 375.849C284.382 376.75 282.624 378.166 280.938 379.776C279.26 381.38 277.608 383.225 275.93 384.963C272.537 388.478 268.964 391.636 264.298 392.376C254.62 393.914 245.036 394.222 235.294 393.595L233.343 393.456C231.214 393.293 229.094 392.913 226.928 392.58C224.782 392.25 222.603 391.968 220.408 392.021C219.687 391.95 218.804 392.105 217.897 392.343C216.96 392.589 215.937 392.94 214.946 393.291C213.947 393.645 212.985 393.996 212.14 394.255C211.385 394.486 210.781 394.624 210.357 394.642H210.188C205.129 394.4 201.26 395.126 197.977 397.022C194.701 398.915 192.065 401.942 189.414 406.193C188.699 407.339 187.736 408.928 186.637 410.429C185.599 411.845 184.474 413.132 183.364 413.891L183.144 414.034C181.596 414.988 179.858 415.606 178.048 416.151C176.482 416.623 174.834 417.046 173.269 417.583L172.604 417.821C168.122 419.493 163.443 420.994 158.768 422.504C154.096 424.013 149.428 425.531 144.989 427.232C143.314 427.874 141.843 429.143 140.471 430.638C139.1 432.13 137.777 433.91 136.437 435.592C133.795 438.907 131.08 441.846 127.499 442.376L127.149 442.42C125.454 442.595 123.43 442.456 121.349 442.272C119.291 442.091 117.172 441.866 115.356 441.889L112.96 441.879C107.38 441.825 101.86 441.56 96.2441 441.461H96.2451C92.7055 441.336 89.1688 441.444 85.6533 441.563C82.1326 441.681 78.6341 441.81 75.1436 441.732H75.1426C73.0365 441.688 69.8718 440.84 67.7471 440.245C66.3096 439.732 64.1464 438.9 62.041 438.177C60.0642 437.498 58.0556 436.885 56.6377 436.701L56.3623 436.67L55.165 436.573C52.4184 436.381 49.9863 436.416 47.6328 436.319C44.9265 436.208 42.2473 435.923 39.0957 434.934C36.8742 434.236 35.4068 433.21 34.3867 431.987C33.3619 430.758 32.7612 429.297 32.3262 427.684C31.8857 426.05 31.6327 424.342 31.2578 422.55C30.8884 420.784 30.4079 418.987 29.5205 417.313C28.8524 416.051 27.5614 414.972 26.0254 414.007C24.479 413.035 22.618 412.14 20.7412 411.276C18.8532 410.408 16.953 409.571 15.2803 408.703C13.6019 407.832 12.2091 406.956 11.3223 406.03C10.0621 404.714 8.54155 402.55 7.11426 400.273C5.73433 398.072 4.46037 395.795 3.61914 394.137C4.30114 390.712 5.32662 387.785 6.33887 384.686C7.3659 381.541 8.37116 378.24 8.94238 374.14C9.47693 370.303 9.31009 367.303 8.72656 364.729C8.14366 362.159 7.14928 360.036 6.06152 357.96C3.88919 353.814 1.33922 349.83 0.637695 342.595C0.141491 337.477 1.06038 333.506 2.20215 329.499C3.34292 325.495 4.71904 321.421 5.0498 316.206C5.25645 312.945 4.5577 309.743 3.87207 306.755C3.17892 303.734 2.50943 300.96 2.67969 298.433C2.84863 295.924 3.65071 292.696 4.51563 289.361C5.37364 286.053 6.29138 282.645 6.65137 279.854C6.90535 277.885 6.94209 275.848 6.99902 273.899C7.05636 271.937 7.13414 270.063 7.46191 268.361C7.67779 267.242 8.37808 265.836 9.14941 264.23C9.90131 262.666 10.7049 260.941 11.0166 259.292C11.4782 256.849 11.5038 254.363 11.543 251.954C11.58 249.68 11.6286 247.474 12.0381 245.354L12.125 244.932C12.4769 243.317 13.5269 241.475 14.6338 239.515C15.7145 237.601 16.8493 235.574 17.2168 233.705C17.554 231.989 17.7978 230.212 18.0273 228.441C18.2575 226.666 18.473 224.901 18.7529 223.185C19.2677 220.029 19.9837 216.752 20.6387 213.438C21.2917 210.133 21.8817 206.804 22.1289 203.592C22.7816 195.114 22.5657 186.229 22.7178 177.714V177.695C22.6559 174.639 23.04 171.529 23.457 168.391C23.8724 165.265 24.3215 162.107 24.3691 159.011C24.4799 151.804 23.7602 144.586 23.0244 137.399C22.2876 130.203 21.5348 123.04 21.5664 115.896C21.5759 113.754 21.8379 111.559 22.0957 109.324C22.3522 107.1 22.6045 104.836 22.5771 102.607C22.5401 99.5831 22.2642 96.5558 22.0469 93.5654C21.8289 90.5655 21.6677 87.5912 21.8516 84.626C21.9994 82.7533 22.6712 81.7754 23.4932 80.5088C24.3355 79.2108 25.2846 77.6762 25.8047 74.7744C26.6366 70.2253 27.2487 65.6386 27.6377 61.0303V61.0283C27.7586 59.5095 27.884 57.2326 28.0459 55.0615C28.2102 52.8586 28.415 50.7265 28.6973 49.375C29.1593 47.1637 30.0612 45.2648 31.0098 43.2188C31.9537 41.1828 32.9346 39.0174 33.4805 36.3447C33.9126 34.2286 34.0127 32.06 34.0195 29.916C34.0265 27.7455 33.9404 25.661 33.9912 23.582C34.0918 19.464 34.7346 15.6962 37.6387 12.6182C38.7077 11.4851 39.8479 10.2026 41.1133 9.11816C42.377 8.03518 43.7151 7.19656 45.1484 6.9209C47.1064 6.54431 49.1834 6.50708 51.3223 6.50586C53.4457 6.50465 55.637 6.53902 57.752 6.28809C59.9706 6.02473 62.2126 5.65943 64.4326 5.30566C66.6569 4.95122 68.8612 4.60827 71.0254 4.38477C73.2857 4.15137 75.7453 4.12044 78.2285 4.10645C80.7022 4.09251 83.2031 4.09525 85.5078 3.92188C96.9611 3.05981 108.107 2.82433 119.598 3.03223C123.62 3.10517 127.562 3.37117 131.522 3.6377C135.479 3.90396 139.455 4.17078 143.527 4.24316C160.89 4.55253 178.276 4.06305 195.615 4.20117H195.632L195.648 4.2002C197.269 4.10568 199.439 4.50062 201.684 4.88477C203.875 5.2599 206.152 5.62836 207.84 5.39453C221.95 3.43862 235.847 3.44944 250.112 3.5332C252.059 3.54455 254.11 3.88346 256.193 4.21875C258.258 4.55103 260.356 4.87993 262.325 4.83789C270.472 4.66358 278.454 5.21089 286.633 5.36133H286.639C290.507 5.39149 294.377 5.30775 298.237 5.23438C302.101 5.16094 305.956 5.09808 309.81 5.16895C311.913 5.20758 314.017 5.43899 316.148 5.6709C318.272 5.90196 320.423 6.13331 322.58 6.16211H322.601L322.62 6.16113C328.161 5.7867 333.272 4.65632 338.388 3.50488C343.512 2.35153 348.643 1.17731 354.278 0.688477L354.29 0.6875L354.302 0.685547Z" stroke="url(#paint1_linear_0_11)"/>
</g>
<defs>
<filter id="filter0_n_0_11" x="0" y="0" width="416" height="443" filterUnits="userSpaceOnUse" color-interpolation-filters="sRGB">
<feFlood flood-opacity="0" result="BackgroundImageFix"/>
<feBlend mode="normal" in="SourceGraphic" in2="BackgroundImageFix" result="shape"/>
<feTurbulence type="fractalNoise" baseFrequency="0.1666666716337204 0.1666666716337204" stitchTiles="stitch" numOctaves="3" result="noise" seed="4348" />
<feColorMatrix in="noise" type="luminanceToAlpha" result="alphaNoise" />
<feComponentTransfer in="alphaNoise" result="coloredNoise1">
<feFuncA type="discrete" tableValues="0 0 0 0 0 0 0 0 0 0 0 0 0 0 0 0 0 0 1 1 1 1 1 1 1 1 1 1 1 1 1 1 0 0 0 0 0 0 0 0 0 0 0 0 0 0 0 0 0 0 0 0 0 0 0 0 0 0 0 0 0 0 0 0 0 0 0 0 0 0 0 0 0 0 0 0 0 0 0 0 0 0 0 0 0 0 0 0 0 0 0 0 0 0 0 0 0 0 0 0 "/>
</feComponentTransfer>
<feComposite operator="in" in2="shape" in="coloredNoise1" result="noise1Clipped" />
<feComponentTransfer in="alphaNoise" result="coloredNoise2">
<feFuncA type="discrete" tableValues="0 0 0 0 0 0 0 0 0 0 0 0 0 0 0 0 0 0 0 0 0 0 0 0 0 0 0 0 0 0 0 0 0 0 0 0 0 0 0 0 0 0 0 0 0 0 0 0 0 0 0 0 0 0 0 0 0 0 0 0 0 0 0 0 0 0 0 0 1 1 1 1 1 1 1 1 1 1 1 1 1 1 0 0 0 0 0 0 0 0 0 0 0 0 0 0 0 0 0 0 "/>
</feComponentTransfer>
<feComposite operator="in" in2="shape" in="coloredNoise2" result="noise2Clipped" />
<feFlood flood-color="rgba(248, 241, 223, 0.4)" result="color1Flood" />
<feComposite operator="in" in2="noise1Clipped" in="color1Flood" result="color1" />
<feFlood flood-color="rgba(255, 255, 255, 0.15)" result="color2Flood" />
<feComposite operator="in" in2="noise2Clipped" in="color2Flood" result="color2" />
<feMerge result="effect1_noise_0_11">
<feMergeNode in="shape" />
<feMergeNode in="color1" />
<feMergeNode in="color2" />
</feMerge>
</filter>
<linearGradient id="paint0_linear_0_11" x1="252.758" y1="526.428" x2="233.947" y2="-7.15315" gradientUnits="userSpaceOnUse">
<stop stop-color="white" stop-opacity="0"/>
<stop offset="0.377221" stop-color="white"/>
<stop offset="0.672378" stop-color="white"/>
<stop offset="1" stop-color="white" stop-opacity="0"/>
</linearGradient>
<linearGradient id="paint1_linear_0_11" x1="303.892" y1="407.994" x2="53.5742" y2="79.8134" gradientUnits="userSpaceOnUse">
<stop stop-color="white" stop-opacity="0"/>
<stop offset="1" stop-color="white"/>
</linearGradient>
</defs>
</svg>
